<svg width="39" height="39" viewBox="0 0 39 39" fill="none" xmlns="http://www.w3.org/2000/svg">
<path fill-rule="evenodd" clip-rule="evenodd" d="M19.5 36.6786C28.9875 36.6786 36.6786 28.9875 36.6786 19.5C36.6786 10.0125 28.9875 2.32143 19.5 2.32143C10.0125 2.32143 2.32143 10.0125 2.32143 19.5C2.32143 28.9875 10.0125 36.6786 19.5 36.6786ZM19.5 39C30.2696 39 39 30.2696 39 19.5C39 8.73045 30.2696 0 19.5 0C8.73045 0 0 8.73045 0 19.5C0 30.2696 8.73045 39 19.5 39Z" fill="black"/>
<path d="M11.1884 24.8954V12.48H9.36011V26.52H18.1872V24.8954H11.1884Z" fill="black"/>
<path d="M27.3336 19.5802C29.6534 19.1189 30.4201 17.735 30.4201 16.1103C30.4201 13.9442 29.1029 12.48 26.1147 12.48H22.3794H20.6297V26.52H22.3794H25.6625C28.5525 26.52 29.8107 25.0558 29.8107 22.8295C29.8107 21.3653 29.1422 20.1218 27.3336 19.5802ZM26.095 14.0244C27.9037 14.0244 28.7097 14.8868 28.7097 16.2106C28.7097 17.7751 27.6285 18.7178 25.9771 18.7178H22.3794V14.0244H26.095ZM25.4463 24.9555H22.3794V20.222H25.1317C26.9011 20.222 28.0217 21.1647 28.0217 22.649C28.0217 24.073 27.196 24.9555 25.4463 24.9555Z" fill="black"/>
</svg>
