<svg width="39" height="39" viewBox="0 0 39 39" fill="none" xmlns="http://www.w3.org/2000/svg">
<path fill-rule="evenodd" clip-rule="evenodd" d="M19.5 36.6786C28.9875 36.6786 36.6786 28.9875 36.6786 19.5C36.6786 10.0125 28.9875 2.32143 19.5 2.32143C10.0125 2.32143 2.32143 10.0125 2.32143 19.5C2.32143 28.9875 10.0125 36.6786 19.5 36.6786ZM19.5 39C30.2696 39 39 30.2696 39 19.5C39 8.73045 30.2696 0 19.5 0C8.73045 0 0 8.73045 0 19.5C0 30.2696 8.73045 39 19.5 39Z" fill="black"/>
<ellipse cx="14" cy="15.5" rx="2" ry="2.5" fill="black"/>
<ellipse cx="25" cy="15.5" rx="2" ry="2.5" fill="black"/>
<path fill-rule="evenodd" clip-rule="evenodd" d="M11.106 24.9485C11.1057 24.948 11.1055 24.9475 11.9999 24.5003C12.8943 24.0531 12.8941 24.0526 12.8939 24.0522L12.8934 24.0514L12.8927 24.05L12.8919 24.0482C12.8917 24.0478 12.8916 24.0477 12.8917 24.048C12.8918 24.0482 12.892 24.0485 12.8922 24.0489L12.9014 24.0661C12.9114 24.0844 12.9291 24.1159 12.9547 24.1588C13.0061 24.2447 13.0891 24.3754 13.2063 24.5361C13.4413 24.8584 13.8099 25.2961 14.3315 25.7354C15.3635 26.6044 17.016 27.5003 19.4999 27.5003C21.9837 27.5003 23.6363 26.6044 24.6683 25.7354C25.1899 25.2961 25.5584 24.8584 25.7934 24.5361C25.9107 24.3754 25.9937 24.2447 26.045 24.1588C26.0707 24.1159 26.0883 24.0844 26.0983 24.0661L26.1076 24.0489L26.107 24.05L26.1063 24.0514L26.1059 24.0522C26.1057 24.0526 26.1055 24.0531 26.9999 24.5003C27.8943 24.9475 27.8941 24.948 27.8938 24.9485L27.8933 24.9496L27.892 24.9521L27.8889 24.9582L27.8804 24.9747C27.8737 24.9875 27.8648 25.0042 27.8538 25.0243C27.8318 25.0646 27.8012 25.1191 27.7614 25.1856C27.6819 25.3184 27.5657 25.5002 27.4095 25.7145C27.0976 26.1422 26.6224 26.7045 25.9565 27.2652C24.6135 28.3962 22.516 29.5003 19.4999 29.5003C16.4837 29.5003 14.3863 28.3962 13.0433 27.2652C12.3774 26.7045 11.9022 26.1422 11.5903 25.7145C11.4341 25.5002 11.3179 25.3184 11.2384 25.1856C11.1986 25.1191 11.1679 25.0646 11.1459 25.0243C11.1349 25.0042 11.1261 24.9875 11.1194 24.9747L11.1109 24.9582L11.1078 24.9521L11.1065 24.9496L11.106 24.9485ZM26.1079 24.0482C26.1083 24.0476 26.1081 24.0478 26.1076 24.0489Z" fill="black"/>
</svg>
